<?xml version="1.0" encoding="UTF-8" standalone="no"?>
<!DOCTYPE svg PUBLIC "-//W3C//DTD SVG 1.1//EN"
 "http://www.w3.org/Graphics/SVG/1.1/DTD/svg11.dtd">
<!-- Generated by graphviz version 8.0.5 (0)
 -->
<!-- Pages: 1 -->
<svg width="70pt" height="398pt"
 viewBox="0.00 0.00 70.00 398.00" xmlns="http://www.w3.org/2000/svg" xmlns:xlink="http://www.w3.org/1999/xlink">
<g id="graph0" class="graph" transform="scale(1 1) rotate(0) translate(4 394)">
<polygon fill="white" stroke="none" points="-4,4 -4,-394 66,-394 66,4 -4,4"/>
<!-- 0 -->
<g id="node1" class="node">
<title>0</title>
<ellipse fill="none" stroke="black" cx="27" cy="-372" rx="27" ry="18"/>
<text text-anchor="middle" x="27" y="-366.95" font-family="Times,serif" font-size="14.00">0</text>
</g>
<!-- 1 -->
<g id="node2" class="node">
<title>1</title>
<ellipse fill="none" stroke="black" cx="27" cy="-283.5" rx="27" ry="18"/>
<text text-anchor="middle" x="27" y="-278.45" font-family="Times,serif" font-size="14.00">1</text>
</g>
<!-- 0&#45;&gt;1 -->
<g id="edge1" class="edge">
<title>0&#45;&gt;1</title>
<path fill="none" stroke="black" d="M13.27,-356.12C8.77,-350.28 4.32,-343.25 2,-336 -0.24,-329.02 -0.24,-326.48 2,-319.5 3.23,-315.65 5.07,-311.86 7.19,-308.28"/>
<polygon fill="black" stroke="black" points="10.51,-310.61 13.27,-300.38 4.73,-306.66 10.51,-310.61"/>
<text text-anchor="middle" x="17" y="-322.7" font-family="Times,serif" font-size="14.00">[0, 1]</text>
</g>
<!-- 0&#45;&gt;1 -->
<g id="edge2" class="edge">
<title>0&#45;&gt;1</title>
<path fill="none" stroke="black" d="M29.93,-353.96C30.77,-348.27 31.58,-341.88 32,-336 32.52,-328.69 32.52,-326.81 32,-319.5 31.83,-317.11 31.6,-314.64 31.32,-312.16"/>
<polygon fill="black" stroke="black" points="34.7,-312 29.93,-302.54 27.76,-312.91 34.7,-312"/>
<text text-anchor="middle" x="47" y="-322.7" font-family="Times,serif" font-size="14.00">[1, 0]</text>
</g>
<!-- 2 -->
<g id="node3" class="node">
<title>2</title>
<ellipse fill="none" stroke="black" cx="27" cy="-195" rx="27" ry="18"/>
<text text-anchor="middle" x="27" y="-189.95" font-family="Times,serif" font-size="14.00">2</text>
</g>
<!-- 1&#45;&gt;2 -->
<g id="edge3" class="edge">
<title>1&#45;&gt;2</title>
<path fill="none" stroke="black" d="M13.27,-267.62C8.77,-261.78 4.32,-254.75 2,-247.5 -0.24,-240.52 -0.24,-237.98 2,-231 3.23,-227.15 5.07,-223.36 7.19,-219.78"/>
<polygon fill="black" stroke="black" points="10.51,-222.11 13.27,-211.88 4.73,-218.16 10.51,-222.11"/>
<text text-anchor="middle" x="17" y="-234.2" font-family="Times,serif" font-size="14.00">[0, 2]</text>
</g>
<!-- 1&#45;&gt;2 -->
<g id="edge4" class="edge">
<title>1&#45;&gt;2</title>
<path fill="none" stroke="black" d="M29.93,-265.46C30.77,-259.77 31.58,-253.38 32,-247.5 32.52,-240.19 32.52,-238.31 32,-231 31.83,-228.61 31.6,-226.14 31.32,-223.66"/>
<polygon fill="black" stroke="black" points="34.7,-223.5 29.93,-214.04 27.76,-224.41 34.7,-223.5"/>
<text text-anchor="middle" x="47" y="-234.2" font-family="Times,serif" font-size="14.00">[2, 0]</text>
</g>
<!-- 3 -->
<g id="node4" class="node">
<title>3</title>
<ellipse fill="none" stroke="black" cx="27" cy="-106.5" rx="27" ry="18"/>
<text text-anchor="middle" x="27" y="-101.45" font-family="Times,serif" font-size="14.00">3</text>
</g>
<!-- 2&#45;&gt;3 -->
<g id="edge5" class="edge">
<title>2&#45;&gt;3</title>
<path fill="none" stroke="black" d="M13.27,-179.12C8.77,-173.28 4.32,-166.25 2,-159 -0.24,-152.02 -0.24,-149.48 2,-142.5 3.23,-138.65 5.07,-134.86 7.19,-131.28"/>
<polygon fill="black" stroke="black" points="10.51,-133.61 13.27,-123.38 4.73,-129.66 10.51,-133.61"/>
<text text-anchor="middle" x="17" y="-145.7" font-family="Times,serif" font-size="14.00">[0, 4]</text>
</g>
<!-- 2&#45;&gt;3 -->
<g id="edge6" class="edge">
<title>2&#45;&gt;3</title>
<path fill="none" stroke="black" d="M29.93,-176.96C30.77,-171.27 31.58,-164.88 32,-159 32.52,-151.69 32.52,-149.81 32,-142.5 31.83,-140.11 31.6,-137.64 31.32,-135.16"/>
<polygon fill="black" stroke="black" points="34.7,-135 29.93,-125.54 27.76,-135.91 34.7,-135"/>
<text text-anchor="middle" x="47" y="-145.7" font-family="Times,serif" font-size="14.00">[4, 0]</text>
</g>
<!-- 4 -->
<g id="node5" class="node">
<title>4</title>
<ellipse fill="none" stroke="black" cx="27" cy="-18" rx="27" ry="18"/>
<text text-anchor="middle" x="27" y="-12.95" font-family="Times,serif" font-size="14.00">4</text>
</g>
<!-- 3&#45;&gt;4 -->
<g id="edge7" class="edge">
<title>3&#45;&gt;4</title>
<path fill="none" stroke="black" d="M13.27,-90.62C8.77,-84.78 4.32,-77.75 2,-70.5 -0.24,-63.52 -0.24,-60.98 2,-54 3.23,-50.15 5.07,-46.36 7.19,-42.78"/>
<polygon fill="black" stroke="black" points="10.51,-45.11 13.27,-34.88 4.73,-41.16 10.51,-45.11"/>
<text text-anchor="middle" x="17" y="-57.2" font-family="Times,serif" font-size="14.00">[0, 8]</text>
</g>
<!-- 3&#45;&gt;4 -->
<g id="edge8" class="edge">
<title>3&#45;&gt;4</title>
<path fill="none" stroke="black" d="M29.93,-88.46C30.77,-82.77 31.58,-76.38 32,-70.5 32.52,-63.19 32.52,-61.31 32,-54 31.83,-51.61 31.6,-49.14 31.32,-46.66"/>
<polygon fill="black" stroke="black" points="34.7,-46.5 29.93,-37.04 27.76,-47.41 34.7,-46.5"/>
<text text-anchor="middle" x="47" y="-57.2" font-family="Times,serif" font-size="14.00">[8, 0]</text>
</g>
</g>
</svg>
